<svg width="810" height="591" fill="none" xmlns="http://www.w3.org/2000/svg"><path opacity=".5" fill-rule="evenodd" clip-rule="evenodd" d="M408.992 532.766c195.583 0 354.134-13.091 354.134-29.24s-158.551-29.24-354.134-29.24c-195.583 0-354.135 13.091-354.135 29.24s158.552 29.24 354.135 29.24z" fill="#F7F9FF"/><path opacity=".7" d="M265 8h240v339H265V8z" fill="url(#paint0_linear)"/><path d="M299.905 53.655h62.879a1.97 1.97 0 0 1 1.976 1.98v77.074a1.97 1.97 0 0 1-1.976 1.979h-62.879a1.97 1.97 0 0 1-1.975-1.979V55.634c-.11-1.1.768-1.979 1.975-1.979zm0 118.856h62.879c1.098 0 1.976.879 1.976 1.979v77.074c0 1.1-.878 1.979-1.976 1.979h-62.879a1.969 1.969 0 0 1-1.975-1.979V174.49c-.11-1.1.768-1.979 1.975-1.979zM406.899 53.655h62.879a1.97 1.97 0 0 1 1.975 1.98v77.074a1.97 1.97 0 0 1-1.975 1.979h-62.879a1.97 1.97 0 0 1-1.976-1.979V55.634c-.109-1.1.878-1.979 1.976-1.979zm0 118.856h62.879c1.097 0 1.975.879 1.975 1.979v77.074c0 1.1-.878 1.979-1.975 1.979h-62.879a1.969 1.969 0 0 1-1.976-1.979V174.49c-.109-1.1.878-1.979 1.976-1.979z" fill="#fff"/><path d="M505 65h20v6h-20v-6z" fill="url(#paint1_linear)"/><path d="M561 57.959v78.082c0 9.092-7.565 17.333-16.87 17.928-10.434.595-19.13-7.477-19.13-17.588V57.619c0-10.111 8.696-18.183 19.13-17.588 9.305.595 16.87 8.836 16.87 17.928z" fill="url(#paint2_linear)"/><path d="M505 123h20v6h-20v-6z" fill="url(#paint3_linear)"/><path d="M264.762 0h240.476c.979 0 1.762.44 1.762.989v8.022c0 .55-.783.989-1.762.989H264.762c-.979 0-1.762-.44-1.762-.989V.989c0-.55.783-.989 1.762-.989z" fill="url(#paint4_linear)"/><path d="M132.686 159.994c19.379-.115 17.377 43.906 23.491 51.358 6.107 7.395 21.159 8.241 20.935 25.792-.223 17.55-14.557 18.48-14.727 33.057-.171 14.578 31.727 9.301 31.404 32.318-.324 23.017-24.337 32.527-24.507 46.389-.17 13.863 12.656 17.938 12.25 48.622-.406 30.684-24.72 39.536-61.738 46.13-37.017 6.595-61.245-1.18-61.091-34.235.154-33.055 39.854-36.306 42.837-54.75 2.99-18.383-23.124-25.451-22.998-46.663.125-21.212 37.955-24.24 38.099-41.188.143-16.948-30.358-22.958-30.246-40.561.113-17.604 7.335-20.986 20.844-28.47 13.521-7.372 6.069-37.685 25.447-37.799z" fill="url(#paint5_linear)"/><path d="M121.626 427.689c-.761.323-1.506-.118-1.664-.985-.157-.868.332-1.832 1.093-2.154 18.295-7.668 27.348-20.239 27.541-38.116.009-.901.649-1.722 1.429-1.835.779-.112 1.403.525 1.393 1.424-.214 19.483-10.278 33.452-29.792 41.666zm3.178-73.663c-.79.02-1.321-.703-1.187-1.616.135-.912.884-1.667 1.674-1.686 12.802-.317 22.829-8.928 30.333-26.068.375-.852 1.255-1.325 1.965-1.057.71.268.981 1.175.605 2.026-8.058 18.386-19.263 28.022-33.39 28.401zm15.492-99.481c-.541-.019-.908-.527-.818-1.133.091-.606.603-1.081 1.145-1.06 6.537.244 11.629-3.758 15.441-12.206.255-.563.856-.849 1.344-.641.487.208.676.833.421 1.395-4.188 9.274-10.085 13.914-17.533 13.645zm-1.922-11.488c.543-.084.92-.636.842-1.233-.078-.596-.582-1.011-1.125-.928-6.556 1.016-11.577-2.449-15.225-10.644-.244-.548-.84-.779-1.333-.515-.492.263-.694.922-.45 1.471 4.008 9.007 9.823 13.017 17.291 11.849zm-10.52 88.728c.788-.161 1.33-1.004 1.21-1.883-.119-.879-.855-1.462-1.643-1.302-11.676 2.376-20.691-3.581-27.286-18.289-.36-.805-1.23-1.117-1.942-.695-.713.422-.998 1.418-.638 2.224 7.128 15.905 17.3 22.617 30.299 19.945zm-14.177 79.045c.784-.199 1.323-1.073 1.203-1.953-.12-.88-.852-1.435-1.636-1.237-11.618 2.928-20.593-2.663-27.17-17.183-.358-.795-1.223-1.069-1.932-.612-.709.458-.992 1.475-.633 2.271 7.106 15.702 17.235 22.001 30.168 18.714z" fill="#98BBE9"/><path d="M122.252 488.792c-.01 1.211-.867 2.37-1.912 2.587-1.045.217-3.304-.297-3.293-1.512 1.576-7.697 2.428-18.088 2.557-31.182.192-19.642-9.654-50.766-7.469-72.875 2.191-22.055 22.297-65.487 27.667-98.454 4.385-26.677-3.022-49.924-5.476-65.56-2.459-15.686-.976-34.61-.628-34.618.416-.009-1.017 19.393 1.694 34.572 2.706 15.126 8.983 34.824 7.779 57.39-2.233 42.077-25.869 81.474-26.107 109.27-.238 27.795 7.691 43.805 8.679 68.031.657 16.13-.508 26.906-3.491 32.351z" fill="#8FAFDA"/><path d="M250.22 122.328c20.196-.043 18.725 47.657 25.226 55.971 6.501 8.314 22.272 9.911 22.321 29.254.05 19.344-14.981 19.376-14.94 35.301.04 15.925 33.509 12.919 33.575 38.567.066 25.648-25.13 33.237-25.091 48.455.039 15.218 13.684 21.588 13.771 55.544.087 33.956-25.64 39.026-64.925 39.11-39.285.084-65.089-12.292-65.177-46.248-.087-33.956 41.862-31.962 44.822-50.999 2.959-19.037-24.649-29.342-24.706-51.38-.056-22.038 39.68-22.123 39.634-40.13-.046-18.007-32.089-26.109-32.136-44.477-.048-18.368 7.471-21.669 21.513-29.144 14.042-7.474 5.917-39.78 26.113-39.824z" fill="url(#paint6_linear)"/><path d="M241.911 407.814c-.805.209-1.602-.394-1.78-1.347-.178-.954.33-1.896 1.135-2.106 19.329-5.035 28.764-17.098 28.714-36.479-.003-.976.664-1.769 1.488-1.771.824-.002 1.494.788 1.497 1.765.054 21.157-10.433 34.566-31.054 39.938zm1.878-77.952c-.843-.057-1.399-.873-1.242-1.823.157-.95.967-1.674 1.811-1.618 13.659.919 24.471-7.309 32.698-25.044.411-.886 1.354-1.321 2.107-.973.752.349 1.03 1.349.619 2.235-8.833 19.041-20.917 28.236-35.993 27.223zm15.314-105.455c-.575-.04-.956-.594-.852-1.236.104-.642.655-1.13 1.229-1.089 6.932.493 12.387-3.618 16.542-12.575.277-.598.919-.89 1.433-.652s.705.916.428 1.513c-4.564 9.84-10.882 14.601-18.78 14.039zm-1.556-12.501c.574-.043.952-.598.845-1.24-.108-.642-.66-1.127-1.235-1.083-6.929.522-12.405-3.565-16.606-12.505-.28-.596-.923-.885-1.436-.645-.513.24-.701.918-.421 1.515 4.615 9.819 10.958 14.553 18.853 13.958zm-9.688 94.498c.838-.058 1.384-.874 1.221-1.822-.163-.947-.975-1.669-1.812-1.61-12.416.863-22.299-6.624-29.91-22.822-.415-.883-1.356-1.316-2.102-.967-.746.35-1.014 1.349-.599 2.232 8.223 17.5 19.378 25.95 33.202 24.989zm-14.045 82.348c.838-.058 1.384-.874 1.221-1.822-.163-.948-.974-1.669-1.812-1.611-12.416.863-22.299-6.624-29.91-22.822-.415-.883-1.356-1.315-2.102-.966-.746.349-1.014 1.349-.599 2.232 8.223 17.5 19.378 25.95 33.202 24.989z" fill="#5ACE87"/><path d="M243.326 473.24c.003 1.293-.896 2.343-2.009 2.346-1.113.002-3.529-1.041-3.532-2.334 0 0 2.383-11.802 2.35-32.725-.032-20.923-10.85-55.737-8.785-78.852 2.064-23.115 22.759-67.096 27.979-102.07 4.247-28.457-3.834-53.989-6.607-70.918-2.774-16.928-1.464-37.185-1.101-37.185.434-.001-.816 20.779 2.216 37.183 3.032 16.403 9.88 38.038 8.924 62.337-1.781 45.233-26.237 84.595-26.161 114.153.076 29.559 8.69 48.04 10.044 74.167 1.353 26.128-3.318 33.898-3.318 33.898z" fill="#42B16D"/><path fill-rule="evenodd" clip-rule="evenodd" d="M430.152 254.769l99.528-59.725a2.421 2.421 0 0 1 3.32.826l44.229 73.515a2.414 2.414 0 0 1-.828 3.315l-99.528 59.726a2.422 2.422 0 0 1-3.32-.827l-44.229-73.515a2.414 2.414 0 0 1 .828-3.315z" fill="url(#paint7_linear)"/><path d="M480.955 250.231a2.86 2.86 0 0 0-.915 3.942l39.006 62.485a2.864 2.864 0 0 0 3.945.911l47.996-29.924a2.86 2.86 0 0 0 .916-3.941l-31.576-50.582-23.24-5.418-36.132 22.527z" fill="url(#paint8_linear)"/><path d="M499.83 266.112a1.073 1.073 0 1 0 1.136 1.82l34.022-21.212a1.073 1.073 0 1 0-1.136-1.82l-34.022 21.212zm6.386 10.231a1.072 1.072 0 1 0 1.136 1.82l34.022-21.212a1.074 1.074 0 1 0-1.136-1.82l-34.022 21.212zm6.059 9.706a1.072 1.072 0 1 0 1.136 1.82l34.023-21.212a1.073 1.073 0 1 0-1.136-1.82l-34.023 21.212zm6.059 9.707a1.072 1.072 0 1 0 1.136 1.82l34.022-21.212a1.073 1.073 0 1 0-1.136-1.82l-34.022 21.212z" fill="#ABC6ED"/><path d="M516.745 227.754l7.501 12.016a2.865 2.865 0 0 0 3.945.912l12.034-7.503-23.48-5.425z" fill="url(#paint9_linear)"/><path fill-rule="evenodd" clip-rule="evenodd" d="M300.091 186.536l95.114 66.514a2.412 2.412 0 0 1 .594 3.364l-49.256 70.255a2.421 2.421 0 0 1-3.369.593l-95.114-66.514a2.415 2.415 0 0 1-.594-3.365l49.256-70.254a2.42 2.42 0 0 1 3.369-.593z" fill="url(#paint10_linear)"/><path d="M312.917 225.286l44.585 31.178c.547.383.68 1.136.297 1.683l-22.272 31.765a1.21 1.21 0 0 1-1.684.297l-44.585-31.178a1.208 1.208 0 0 1-.297-1.683l22.271-31.765a1.21 1.21 0 0 1 1.685-.297z" fill="url(#paint11_linear)"/><path d="M311.926 224.593l46.566 32.564-36.42 2.634-10.146-35.198z" fill="url(#paint12_linear)"/><path fill-rule="evenodd" clip-rule="evenodd" d="M391.97 174.971l106.075 47.167a2.415 2.415 0 0 1 1.226 3.189l-34.929 78.35a2.421 2.421 0 0 1-3.194 1.225l-106.075-47.167a2.416 2.416 0 0 1-1.226-3.19l34.929-78.349a2.42 2.42 0 0 1 3.194-1.225z" fill="url(#paint13_linear)"/><path d="M405.866 208.201a1.21 1.21 0 0 1 1.517-.767l11.969 3.842c.598.192.949.808.809 1.419l-.749 3.281c-.125.543.139 1.1.639 1.349l40.606 20.244.022.011c.592.311.819 1.041.508 1.632l-17.749 33.706a1.21 1.21 0 0 1-1.559.543l-49.421-21.794a1.208 1.208 0 0 1-.658-1.489l14.066-41.977z" fill="url(#paint14_linear)"/><path d="M392.504 249.864l16.851-29.199a1.21 1.21 0 0 1 1.552-.495l55.915 25.647a1.207 1.207 0 0 1 .382 1.918l-24.001 25.873a1.21 1.21 0 0 1-1.391.277l-48.764-22.319a1.208 1.208 0 0 1-.544-1.702z" fill="url(#paint15_linear)"/><path d="M201.119 484.312l-1.516 9.592s2.768 3.831 6.837 3.831 7.244-1.932 7.244-1.932l1.519-10.485-14.084-1.006z" fill="url(#paint16_linear)"/><path d="M199.529 492.768c-1.152 0-1.152 3.958-1.202 6.972-.018 1.096.177 2.767.586 5.013.167.92.905 1.594 1.778 1.626 18.474.681 29.605.663 29.639-.055 1.476-4.899.672-5.427-7.705-9.27-3.406-1.562-6.531-2.308-8.649-3.59-.724-.439-2.242 3.108-7.25 3.108-5.007 0-6.046-3.804-7.197-3.804z" fill="url(#paint17_linear)"/><path d="M201.969 330.1c14.858 36.347 25.655 76.326 25.655 91.674.001 15.347-5.334 40.215-12.548 68.389-3.745 2.132-12.808.374-14.607-1.758-2.018-2.392 4.876-54.868 3.77-65.613-1.106-10.745-31.423-59.841-31.423-61.618 0-1.777 1.157-10.977 3.469-27.6l25.684-3.474z" fill="url(#paint18_linear)"/><path d="M157.173 490.352l-1.517 9.592s2.769 3.831 6.838 3.831c4.068 0 7.243-1.932 7.243-1.932l1.52-10.485-14.084-1.006z" fill="url(#paint19_linear)"/><path d="M155.582 498.808c-1.151 0-1.151 3.958-1.201 6.972-.018 1.096.177 2.767.586 5.013.167.92.904 1.594 1.778 1.626 18.474.681 29.605.663 29.639-.055 1.476-4.899.672-5.427-7.706-9.27-3.405-1.562-6.531-2.308-8.648-3.59-.725-.439-2.243 3.108-7.25 3.108-5.008 0-6.047-3.804-7.198-3.804z" fill="url(#paint20_linear)"/><path d="M202.025 329.791s-.857 16.262-11.319 25.11c-5.932 5.017 1.194 28.761-6.249 70.635-7.444 41.874-11.113 64.818-12.647 68.937-1.534 4.118-14.302 4.474-15.39-1.225-1.088-5.699 4.082-31.701 4.808-70.209-8.482-39.467-14.235-69.488-13.568-71.136.666-1.647-1.129-11.559 7.251-26.106l47.114 3.994z" fill="url(#paint21_linear)"/><path d="M161.588 485.702s12.281-53.41 8.187-69.343c-4.093-15.933-14.062-65.247-14.062-73.152" stroke="#3485F7" stroke-linecap="round" stroke-linejoin="round" stroke-dasharray="5 10"/><path fill-rule="evenodd" clip-rule="evenodd" d="M150.998 195.55s-11.159-.942-12.708 8.499c-1.549 9.441 6.205 28.801-5.725 36.649-11.931 7.849-16.398 23.831-1.663 32.206 14.736 8.374 34.863-9.702 34.863-9.702l2.207-37.123-4.96-10.089-12.014-20.44z" fill="url(#paint22_linear)"/><path d="M148.795 201.281a3.928 3.928 0 0 1-3.931-3.925 3.928 3.928 0 0 1 3.931-3.926 3.928 3.928 0 0 1 3.931 3.926 3.928 3.928 0 0 1-3.931 3.925z" fill="url(#paint23_linear)"/><path fill-rule="evenodd" clip-rule="evenodd" d="M190.828 208.646c3.54-4.389 5.31-9.312 5.31-14.768 0-8.185-17.209-23.229-36.05-12.641-18.841 10.587-18.072 28.252.63 47.132 12.468 12.586 17.673 7.104 15.615-16.449l14.495-3.274z" fill="url(#paint24_linear)"/><path fill-rule="evenodd" clip-rule="evenodd" d="M161.442 237.368c12.998 11.029 22.078 16.759 25.759 14.856 3.684-1.904 3.684-6.399-1.543-11.577 0 0-3.645-.158-6.06-3.279-1.681-2.174-1.239-8.222 1.324-18.146-12.931-11.047-18.928-14.694-17.991-10.943 1.406 5.628.281.626.562 8.754.184 5.325-.499 11.961-2.051 19.908v.427z" fill="url(#paint25_linear)"/><path fill-rule="evenodd" clip-rule="evenodd" d="M190.955 212.389l.991-8.968c1.575-3.704-1.842-7.686-3.374-6.98-6.03 2.776-14.582 1.83-19.737-2.838.872 6.389.872 10.131-3.749 11.496-1.756-1.811-6.42-2.721-6.662 3.791-.162 4.342 1.554 6.247 5.148 5.714l.927 7.387s5.947 7.653 12.665 9.769c3.625 1.141 6.021 1.215 7.189.221 2.074-1.765 4.239-6.926 6.097-14.307 1.18-.323 2.232-.646 2.232-2.107 0-.539-1.052-.963-1.727-3.178z" fill="url(#paint26_linear)"/><path fill-rule="evenodd" clip-rule="evenodd" d="M191.946 203.421l-.991 8.968.14.165c-1.957-1.142-2.473-3.301-2.735-6.311-.092-1.055.18-1.529.54-2.158.321-.56.712-1.243.981-2.567.36-1.778.184-3.095.057-4.047-.042-.316-.079-.592-.089-.831 1.566.917 3.309 3.931 2.097 6.781z" fill="url(#paint27_linear)"/><path d="M267.462 233.949l-5.537-4.232 7.852-6.599c.642-4.785 1.428-7.698 2.356-8.739.935-1.047 6.156-2.043 7.259-1.718.121.036-2.625 3.452-3.035 4.545-.098.262.303.427.474.344 1.595-.765 4.673-3.221 5.697-2.286s-2.108 2.926-2.516 5.37c-.344 2.068-2.284 4.247-5.819 6.536l-6.731 6.779z" fill="#F2A384"/><path d="M185.922 240.894c7.855 1.134 14.696 2.359 20.524 3.674 5.495 1.239 12.856 3.886 20.151 2.915 14.254-1.897 36.98-23.559 40.29-23.559 1.336 0 3.072 1.786 5.209 5.359a1.812 1.812 0 0 1-.188 2.117c-15.852 18.251-26.213 29.006-31.082 32.265-4.956 3.317-19.553 7.225-43.793 11.724 1.294-4.502 1.294-8.757 0-12.764-.863-2.669-4.566-9.913-11.111-21.731z" fill="url(#paint28_linear)"/><path fill-rule="evenodd" clip-rule="evenodd" d="M261.227 243.485a6.344 6.344 0 0 1-3.782-5.801 6.346 6.346 0 0 1 6.35-6.342 6.347 6.347 0 0 1 5.46 3.102 781.223 781.223 0 0 1-8.028 9.041zm-68.845 9.338a194.308 194.308 0 0 1 2.855 5.636 6.32 6.32 0 0 0 3.486 1.041 6.346 6.346 0 0 0 6.35-6.342 6.346 6.346 0 0 0-6.35-6.342 6.346 6.346 0 0 0-6.341 6.007zm24.437 13.312c0 1.888.826 3.583 2.136 4.744 3.874-.905 7.275-1.781 10.202-2.628a6.346 6.346 0 0 0-5.988-8.458 6.346 6.346 0 0 0-6.35 6.342zm24.198-24.611c-3.886 2.32-7.768 4.25-11.302 5.282a6.351 6.351 0 0 0 6.154 4.774c3.507 0 6.35-2.84 6.35-6.342a6.31 6.31 0 0 0-1.202-3.714z" fill="url(#paint29_linear)"/><path d="M185.512 240.586l.343.142a25.333 25.333 0 0 1 11.622 9.727 25.48 25.48 0 0 1 3.677 17.899c-1.869 11.357-4.699 29.073-4.698 32.198 0 4.666 5.697 29.403 5.697 29.403s-3.246.366-10.426 1.974c-14.087 3.157-30.094 2.196-36.995-4.524-4.755-4.63-10.304-10.635-16.799-25.022-6.157-29.473 1.858-49.156 5.081-52.903 3.222-3.747 3.215-5.732 18.946-12.1 13.015 11.046 21.364 15.617 25.048 13.713 3.683-1.904 2.089-4.499-1.496-10.507z" fill="url(#paint30_linear)"/><path opacity=".4" d="M154.732 327.405c-1.587-1.545-3.262-3.243-5.031-5.355l2.829-19.35 4.089-41.9c2.817 12.076 11.657 14.307 8.602 21.975-4.581 11.502 15.935 13.841 12.352 25.197s11.517 11.356 10.21 21.849a7.894 7.894 0 0 1-1.005 3.036c-12.72 1.929-25.944.49-32.046-5.452z" fill="url(#paint31_linear)"/><path fill-rule="evenodd" clip-rule="evenodd" d="M141.491 262.045a6.346 6.346 0 0 0 6.35 6.342c3.507 0 6.35-2.84 6.35-6.342a6.346 6.346 0 0 0-6.35-6.342 6.346 6.346 0 0 0-6.35 6.342zm56.282 27.449a6.34 6.34 0 0 1-2.458.492 6.346 6.346 0 0 1-6.35-6.342 6.346 6.346 0 0 1 6.35-6.341c1.57 0 3.006.568 4.114 1.51a874.148 874.148 0 0 0-1.656 10.681zm-61.244 4.629a6.333 6.333 0 0 0 2.829-5.279 6.343 6.343 0 0 0-3.669-5.75c.069 3.458.331 7.14.84 11.029zm13.878 25.604a6.346 6.346 0 0 0-6.794-6.326c2.211 3.7 4.297 6.533 6.266 8.861.34-.776.528-1.634.528-2.535zm11.487 7.38a6.346 6.346 0 0 1 6.35-6.342 6.346 6.346 0 0 1 6.35 6.342 6.345 6.345 0 0 1-4.883 6.171 41.778 41.778 0 0 1-4.993-.896 6.334 6.334 0 0 1-2.824-5.275zm35.356-9.715c.709 0 1.391-.116 2.028-.33-1.136-5.322-1.929-9.437-2.379-12.344a6.346 6.346 0 0 0-5.999 6.332 6.346 6.346 0 0 0 6.35 6.342zm-27.951-16.69a6.346 6.346 0 0 1-6.35-6.342 6.346 6.346 0 0 1 6.35-6.342c3.507 0 6.35 2.84 6.35 6.342a6.346 6.346 0 0 1-6.35 6.342zm0-36.012a6.346 6.346 0 0 0 6.35 6.342c3.507 0 6.35-2.84 6.35-6.342a6.346 6.346 0 0 0-6.35-6.342 6.346 6.346 0 0 0-6.35 6.342z" fill="url(#paint32_linear)"/><path d="M165.38 338.472l4.429-5.378 6.328 8.068c4.324.825 6.73 1.758 7.218 2.798.732 1.559-1.151 1.322.362 2.767 1.015.969 2.74 2.489 2.377 3.578-.139.415-1.925.465-2.195.843-1.326 1.858-4.014 3.096-5.843 1.954-2.119-1.322-4.162-3.881-6.127-7.674l-6.549-6.956z" fill="#F2A384"/><path d="M162.594 268.769c-4.802 12.556-7.71 21.749-8.725 27.577-1.015 5.828 4.983 18.189 17.993 37.083-.688 6.795-3.34 8.723-7.956 5.781-6.923-4.412-18.133-5.141-30.507-40.264-6.746-19.148 4.996-48.52 14.46-54.661 7.894-5.124 13.423-4.025 14.735 0 3.702 11.354 3.702 19.516 0 24.484z" fill="url(#paint33_linear)"/><path fill-rule="evenodd" clip-rule="evenodd" d="M141.49 262.046a6.346 6.346 0 0 0 6.35 6.342c3.507 0 6.35-2.84 6.35-6.342a6.346 6.346 0 0 0-6.35-6.342 6.346 6.346 0 0 0-6.35 6.342zm-9.165 33.105c-.864-3.935-1.085-8.173-.813-12.47a6.356 6.356 0 0 1 1.496-.177 6.346 6.346 0 0 1 6.35 6.341 6.346 6.346 0 0 1-7.033 6.306zm7.66 19.711a6.328 6.328 0 0 1 4.072-1.476c3.507 0 6.35 2.84 6.35 6.342a6.343 6.343 0 0 1-3.995 5.891c-2.069-2.794-4.218-6.298-6.427-10.757z" fill="#FEC644"/><path fill-rule="evenodd" clip-rule="evenodd" d="M362.159 486.727l41.728 13.288 213.479-12.684-44.147-12.985-211.06 12.381z" fill="#E2EBFC" opacity=".6"/><path fill-rule="evenodd" clip-rule="evenodd" d="M362.159 486.727l-19.665 13.288-100.607-12.684 20.806-12.985 99.466 12.381z" fill="#E2EBFC" opacity=".6"/><path d="M262.979 275.94l99.18-18.12v228.907l-99.18-12.683V275.94z" fill="url(#paint34_linear)"/><path fill-rule="evenodd" clip-rule="evenodd" d="M362.159 257.82l-99.179 18.12h-.001v89.388h87.085l12.095-107.506v-.002z" fill="#E2EBFC" opacity=".6"/><path d="M262.979 275.94l99.18-18.12-24.19 101.468h-99.18l24.19-83.348z" fill="url(#paint35_linear)"/><path d="M362.159 257.82l211.665 18.12v198.708l-211.665 12.079V257.82z" fill="url(#paint36_linear)"/><path opacity=".2" d="M362.443 284.902s31.641 24.132 28.69 73.111c-2.951 48.98 77.189 1.221 71.515 39.13-5.673 37.91 67.726 17.509 62.298 40.864-5.428 23.355 47.935 5.664 47.935 36.639l-210.854 12.072.416-201.816z" fill="url(#paint37_linear)"/><path fill-rule="evenodd" clip-rule="evenodd" d="M573.824 365.932V275.94l-211.665-18.12 6.048 108.112h205.617z" fill="#E2EBFC" opacity=".6"/><path d="M362.159 257.82l211.665 18.12 24.19 77.913H386.349l-24.19-96.033z" fill="url(#paint38_linear)"/><path d="M627.387 204.565c1.477 8.521 3.347 13.579 4.437 15.7 1.635 3.182 19.634 8.406 5.012 14.931-9.749 4.349-20.772-.053-34.215-16.238 3.011-2.721 5.352-6.131 5.546-9.832.194-3.702-.394-6.912-1.765-9.631-7.414-15.612-10.415-24.903-9.002-27.873 1.412-2.969 8.421-7.787 21.027-14.454 12.48 5.923 24.683 6.821 24.476 10.779l-1.077 11.972c4.003 8.791-1.814 20.784-4.034 23.297-2.219 2.513-7.058 1.349-10.405 1.349z" fill="url(#paint39_linear)"/><path fill-rule="evenodd" clip-rule="evenodd" d="M636.826 183.533l-2.432.127c-.43 2.026-1.821 3.808-3.819 4.582-3.24 1.255-6.741-.747-7.713-4.227-.924-3.307.717-6.718 3.8-7.655 3.258-.991 6.71.984 7.636 4.25.115.407.187.818.219 1.229l1.986-.104c-.124-2.763 1.45-5.312 4.049-6.102 3.259-.991 6.711.984 7.636 4.25.878 3.097-.75 6.48-3.722 7.632-3.164 1.226-6.576-.655-7.64-3.982zm-7.413 2.983c2.1-.814 3.344-3.399 2.692-5.7-.605-2.132-2.577-3.261-4.48-2.682-2.079.632-3.31 3.19-2.615 5.676.646 2.315 2.571 3.416 4.403 2.706zm16.582-6.427c.652 2.301-.592 4.886-2.692 5.7-1.832.71-3.756-.391-4.403-2.705-.694-2.487.537-5.045 2.616-5.677 1.902-.579 3.875.55 4.479 2.682z" fill="url(#paint40_linear)"/><path d="M614.072 180.688l9.066-.221.095 3.622-9.066-1.591-.095-1.81z" fill="url(#paint41_linear)"/><path d="M645.721 160.775c0 16.014-27.254 14.373-27.254 14.373s-2.593 10.012-2.665 10.526c-.344 2.435-2.677-8.921-6.103-6.987-3.426 1.934-3.733 10.145 1.794 12.637-1.266 4.353-2.448 6.215-4.736 9.059-4.929-.68-9.236-6.698-12.974-17.089-3.739-10.39-3.461-11.943.833-17.43-1.243-4.083-.551-8.011 2.075-11.784 1.996-2.866 11.788-8.082 21.756-6.103 21.213 4.212 27.274-3.216 27.274 12.798z" fill="url(#paint42_linear)"/><path d="M686.814 462.172l5.536 11.86s-1.429 5.42-6.207 7.645c-4.778 2.225-8.378 1.14-8.378 1.14l-6.94-11.76 15.989-8.885z" fill="url(#paint43_linear)"/><path d="M675.741 479.163c1.352-.63 4.658 3.27 10.539.531 5.881-2.739 4.53-7.181 5.622-7.062 2.126.232 5.176.646 9.149 1.242 12.294-1.805 18.758-.521 19.393 3.853.354.861-13.805 7.482-35.873 16.785-1.044.441-2.28.052-2.981-.937-1.711-2.414-2.856-4.269-3.437-5.567-1.593-3.566-3.764-8.216-2.412-8.845z" fill="url(#paint44_linear)"/><path d="M632.082 298.814c9.411 13.725 27.537 43.311 37.853 96.587 10.316 53.276 21.939 68.562 21.978 72.299.06 5.606-18.074 13.751-21.978 7.458-2.603-4.194-12.869-21.172-29.639-67.375-28.168-43.143-41.653-74.069-41.614-76.336.038-2.266 1.713-13.975 5.025-35.126 9.506-12.063 18.965-11.232 28.375 2.493z" fill="url(#paint45_linear)"/><path d="M629.423 344.337s34.695 84.212 49.102 124.548" stroke="#5F90CC" stroke-linecap="round" stroke-linejoin="round" stroke-dasharray="5 10"/><path d="M599.944 480.942l-2.051 12.924s-4.218 3.696-9.426 2.872c-5.207-.824-7.583-3.734-7.583-3.734l.831-13.625 18.229 1.563z" fill="url(#paint46_linear)"/><path d="M581.251 488.844c1.473.233 2.031 5.312 8.439 6.326 6.409 1.014 7.777-3.423 8.615-2.715 1.633 1.38 3.93 3.427 6.89 6.14 11.202 5.369 14.59 6.856 13.986 11.99-.121.583-17.386-.026-17.233 0 6.047 1.04-13.484-2.419-21.972-4.084-1.111-.218-1.918-1.231-1.946-2.442-.067-2.957.022-5.135.268-6.535.676-3.846 1.48-8.913 2.953-8.68z" fill="url(#paint47_linear)"/><path d="M640.09 316.967s2.427 47.822-16.206 98.795c-18.632 50.973-19.445 67.392-21.338 70.616-2.84 4.836-23.975 5.303-24.077-2.099-.068-4.934 6.644-29.957 13.036-76.564 6.393-46.608-2.386-71.259 0-83.271 2.387-12.012 10.592-29.819 24.615-53.421l23.97 45.944z" fill="url(#paint48_linear)"/><path d="M614.529 340.214s-1.528 38.711-7.068 66.857c-5.54 28.146-17.675 76.797-17.675 76.797" stroke="#5F90CC" stroke-linecap="round" stroke-linejoin="round" stroke-dasharray="5 10"/><path d="M629.653 215.378l12.509 9.828c12.095 16.308 6.961 69.878 6.128 102.295-13.611 13.731-23.191 15.739-52.93 6.023 1.757-9.755.796-24.826-2.885-45.212-6.011-30.532-12.538-53.17-8.672-57.67 3.443-4.007 9.837-7.359 18.658-13.001.724-.463 1.565-1.966 2.524-4.509 1.503-.548 2.309-.78 2.419-.695.265.204-1.084 1.779-.922 1.903 10.582 8.052 17.764 11.128 22.152 9.807 2.778-.837 3.711 9.611 5.287 8.795 1.131-.585-.441-9.901 0-10.731.095-.179-1.949-.919-2.54-1.738-.476-.66-1.052-2.359-1.728-5.095z" fill="url(#paint49_linear)"/><path d="M606.85 221.142l2.972.554-1.493 7.986-5.775-2.493-1.559 6.557-6.045-2.233-1.099 4.905-2.951-.659 1.854-8.276 6.088 2.248 1.603-6.743 5.607 2.421.798-4.267zm33.971 18.916l2.852-1.004 2.705 7.662-6.249.724 1.932 6.457-6.353 1.086 1.503 4.796-2.885.902-2.537-8.093 6.397-1.092-1.987-6.641 6.067-.703-1.445-4.094zm-27.08 5.43l-2.619-1.509 3.628-6.277 6.285 3.624-1.512 2.615-3.666-2.113-2.116 3.66z" fill="#7BE8A1"/><path d="M550.239 253.593h116.113a2.417 2.417 0 0 1 2.419 2.416v85.764a2.417 2.417 0 0 1-2.419 2.416H550.239a2.417 2.417 0 0 1-2.419-2.416v-85.764a2.417 2.417 0 0 1 2.419-2.416z" fill="#F2F5FF"/><path d="M571.406 270.504h73.78c.668 0 1.21.541 1.21 1.208v54.358a1.21 1.21 0 0 1-1.21 1.208h-73.78a1.21 1.21 0 0 1-1.21-1.208v-54.358a1.21 1.21 0 0 1 1.21-1.208z" fill="url(#paint50_linear)"/><path d="M625.428 286.855c.526 0 .951.414.951.925a.937.937 0 0 1-.951.924h-43.17a.937.937 0 0 1-.95-.924c0-.511.425-.925.95-.925h43.17zm-10.548 7.396c.525 0 .951.414.951.924a.938.938 0 0 1-.951.925h-32.622a.937.937 0 0 1-.95-.925c0-.51.425-.924.95-.924h32.622z" fill="#ABC6ED"/><path d="M634.304 307.565l-.833-.853a.179.179 0 0 0-.131-.057.163.163 0 0 0-.072.014.162.162 0 0 0-.061.043l-5.759 5.802-2.098-2.096a.18.18 0 0 0-.263 0l-.841.841a.183.183 0 0 0 0 .268l2.643 2.638c.143.157.34.253.552.268a.875.875 0 0 0 .547-.255l6.314-6.349a.206.206 0 0 0 0-.256l.002-.008z" fill="#98BBE9"/><path d="M629.269 302.044a8.507 8.507 0 0 1 5.391 1.93 8.501 8.501 0 0 1-2.142 14.421 8.498 8.498 0 0 1-9.261-13.861 8.42 8.42 0 0 1 6.012-2.49zm0-1.321a9.826 9.826 0 0 0-9.076 6.063 9.829 9.829 0 0 0 2.129 10.705 9.825 9.825 0 0 0 16.023-10.705 9.814 9.814 0 0 0-5.317-5.316 9.797 9.797 0 0 0-3.759-.747z" fill="#98BBE9"/><path d="M571.406 270.504h73.78c.668 0 1.21.541 1.21 1.208v6.644h-76.2v-6.644a1.21 1.21 0 0 1 1.21-1.208z" fill="url(#paint51_linear)"/><path d="M575.034 275.94a1.21 1.21 0 0 1-1.21-1.208 1.21 1.21 0 0 1 2.419 0c0 .667-.541 1.208-1.209 1.208zm4.234 0a1.208 1.208 0 1 1-.001-2.417 1.208 1.208 0 0 1 .001 2.417z" fill="#F2F5FF"/><path opacity=".5" d="M608.747 305.887c-6.594-.345-27.271-41.792-26.598-54.636.673-12.844 1.844-20.193 8.438-19.848 6.593.346 16.814 5.401 16.141 18.245-.387 7.379-1.487 21.783-.767 35.483.534 10.146 5.591 20.903 2.786 20.756z" fill="#95AFF5"/><path d="M623.81 337.022c-4.045-.886-21.778-13.394-35.496-28.942-3.529-3.999 14.555-15.075 17.552-9.88 4.545 7.876 12.641 18.487 24.29 31.833 1.494.503 3.115 1.077 4.864 1.722 5.353-.451 8.391-.413 9.114.117.722.529-.424 1.77-3.439 3.724 6.901 2.553 10.532 4.237 10.891 5.051.36.814-1.957.848-6.951.102 5.069 2.916 7.383 4.676 6.939 5.281-.443.605-3.38.244-8.812-1.08 3.685 3.171 5.215 4.903 4.59 5.194-.624.292-3.294-.604-8.01-2.686 1.426 3.196 1.803 4.809 1.132 4.839-.672.03-3.841-3.549-9.509-10.737l-5.911-3.886c-.22-.186-.435-.369-.645-.55a6.102 6.102 0 0 1-.599-.102z" fill="#B06C57"/><path d="M606.465 252.192c-5.011 18.851-4.602 23.346-4.955 33.993-.06 1.798.511 4.081 1.712 6.849.046.106.203.159.472.158a3.63 3.63 0 0 1 2.901 1.427c.736.965 1.329 1.825 1.778 2.581 4.641 7.814-12.225 20.709-22.978 12.74-.712-.528-1.368-1.82-1.969-3.876a3.62 3.62 0 0 1 .378-2.887c.118-.196.14-.341.067-.435a89.108 89.108 0 0 1-5.046-7.118c-13.179-20.8-3.216-63.231 8.08-67.403 10.032-3.704 24.572 5.121 19.56 23.971z" fill="url(#paint52_linear)"/><path d="M581.034 247.73l-1.006-2.848 7.672-2.702.725 6.241 6.466-1.93 1.087 6.345 4.802-1.502.904 2.882-8.104 2.534-1.094-6.389-6.649 1.985-.704-6.06-4.099 1.444z" fill="#6AD792"/><path d="M595.871 296.439l1.512-2.616 6.284 3.624-3.628 6.276-2.619-1.51 2.117-3.661-3.666-2.113zm-12.798-10.042l-2.619-1.51 3.628-6.276 6.285 3.624-1.512 2.615-3.666-2.113-2.116 3.66z" fill="#4FC37D"/><path d="M593.505 272.477l-2.618-1.509 3.628-6.277 6.284 3.624-1.512 2.615-3.665-2.113-2.117 3.66z" fill="#5FCC89"/><path d="M809.847 386.581L763.034 354S744.411 395.425 708 412.911l40.056 37.724s47.01-17.441 61.791-64.054z" fill="url(#paint53_linear)"/><circle opacity=".3" cx="732.805" cy="413.683" r="6.686" fill="#79A4DD"/><path d="M761.919 370.294l35.126 22.222-2.382 3.79-34.967-22.168 2.223-3.844zm-5.27 9.106l35.126 22.222-2.381 3.79-34.967-22.168 2.222-3.844zm-6.435 9.905l34.395 22.155-3.198 3.385-34.024-21.769 2.827-3.771zm-7.539 8.957l35.338 22.155-4.141 2.442-34.967-22.168 3.77-2.429z" fill="#C5D7F3" style="mix-blend-mode:multiply" opacity=".517"/><path d="M317.543 89.538s-3.921-11.398-2.538-19.915c0 0 21.157 14.444 36.673 7.056 3.666 9.58 6.876 43.249 43.052 37.103-10.043 3.451-19.354 2.272-19.354 2.272s-29.158-2.118-40.874-8.035c-11.716-5.916-16.959-18.481-16.959-18.481z" fill="url(#paint54_linear)"/><path d="M317.053 88.595s11.168 24.618 32.459 4.74c0 0 18.279 24.87 47.493 19.567 0 0-28.884 9.397-49.977 2.984-21.094-6.413-29.975-27.291-29.975-27.291z" fill="url(#paint55_linear)"/><path d="M434.506 134.697l-.005-.004a1.342 1.342 0 0 1-.205-1.887l8.728-10.853a1.342 1.342 0 0 1 1.793-.273l3.104 2.083a1.342 1.342 0 0 0 1.654-.124l37.134-34.006.021-.018a1.341 1.341 0 0 1 1.893.123l27.889 31.8c.468.534.44 1.34-.065 1.839l-42.011 41.599a1.342 1.342 0 0 1-1.779.096l-38.151-30.375z" fill="url(#paint56_linear)"/><path d="M472.46 164.983L448.88 135.9a1.341 1.341 0 0 1 .104-1.805l48.823-47.713a1.341 1.341 0 0 1 2.141.368l17.288 35.165a1.345 1.345 0 0 1-.266 1.552l-42.53 41.63a1.341 1.341 0 0 1-1.98-.114z" fill="url(#paint57_linear)"/><path d="M473.478 160.574l-1.302-1.385 12.617-12.033 1.023 1.601-12.338 11.817z" fill="#A3C1EA"/><defs><linearGradient id="paint0_linear" x1="401" y1="292" x2="465.99" y2="-671.142" gradientUnits="userSpaceOnUse"><stop stop-color="#DDE8FA"/><stop offset="1" stop-color="#E5EEFF"/></linearGradient><linearGradient id="paint1_linear" x1="494.571" y1="58.743" x2="494.571" y2="71" gradientUnits="userSpaceOnUse"><stop stop-color="#fff"/><stop offset="1" stop-color="#B3CDEF"/></linearGradient><linearGradient id="paint2_linear" x1="506.228" y1="-78.89" x2="506.228" y2="154" gradientUnits="userSpaceOnUse"><stop stop-color="#fff"/><stop offset="1" stop-color="#B3CDEF"/></linearGradient><linearGradient id="paint3_linear" x1="494.571" y1="116.743" x2="494.571" y2="129" gradientUnits="userSpaceOnUse"><stop stop-color="#fff"/><stop offset="1" stop-color="#B3CDEF"/></linearGradient><linearGradient id="paint4_linear" x1="311.674" y1="-1.493" x2="311.381" y2="14.103" gradientUnits="userSpaceOnUse"><stop stop-color="#E5EDFF"/><stop offset="1" stop-color="#6B9AD9"/></linearGradient><linearGradient id="paint5_linear" x1="-73.897" y1="-113.157" x2="-13.445" y2="458.162" gradientUnits="userSpaceOnUse"><stop stop-color="#fff"/><stop offset="1" stop-color="#B3CDEF"/></linearGradient><linearGradient id="paint6_linear" x1="186.073" y1="245.64" x2="283.912" y2="466.836" gradientUnits="userSpaceOnUse"><stop stop-color="#84F0A8"/><stop offset="1" stop-color="#48B676"/></linearGradient><linearGradient id="paint7_linear" x1="299.112" y1="164.018" x2="190.321" y2="547.893" gradientUnits="userSpaceOnUse"><stop stop-color="#F7FAFF"/><stop offset="1" stop-color="#6B9AD9"/></linearGradient><linearGradient id="paint8_linear" x1="568.236" y1="175.029" x2="746.185" y2="308.211" gradientUnits="userSpaceOnUse"><stop stop-color="#F7FAFF"/><stop offset="1" stop-color="#6B9AD9"/></linearGradient><linearGradient id="paint9_linear" x1="529.349" y1="198.972" x2="547.75" y2="228.487" gradientUnits="userSpaceOnUse"><stop stop-color="#fff"/><stop offset="1" stop-color="#B3CDEF"/></linearGradient><linearGradient id="paint10_linear" x1="116.627" y1="154.635" x2="3.039" y2="547.058" gradientUnits="userSpaceOnUse"><stop stop-color="#F7FAFF"/><stop offset="1" stop-color="#6B9AD9"/></linearGradient><linearGradient id="paint11_linear" x1="262.003" y1="156.904" x2="262.003" y2="272.719" gradientUnits="userSpaceOnUse"><stop stop-color="#fff"/><stop offset="1" stop-color="#B3CDEF"/></linearGradient><linearGradient id="paint12_linear" x1="254.795" y1="187.884" x2="254.795" y2="309.451" gradientUnits="userSpaceOnUse"><stop stop-color="#fff"/><stop offset="1" stop-color="#B3CDEF"/></linearGradient><linearGradient id="paint13_linear" x1="226.178" y1="145.798" x2="126.834" y2="510.226" gradientUnits="userSpaceOnUse"><stop stop-color="#F7FAFF"/><stop offset="1" stop-color="#6B9AD9"/></linearGradient><linearGradient id="paint14_linear" x1="399.967" y1="201.715" x2="402.894" y2="252.265" gradientUnits="userSpaceOnUse"><stop stop-color="#E2A53A"/><stop offset="1" stop-color="#FEB755"/></linearGradient><linearGradient id="paint15_linear" x1="388.253" y1="214.193" x2="388.253" y2="273.995" gradientUnits="userSpaceOnUse"><stop stop-color="#FFE579"/><stop offset="1" stop-color="#FEB755"/></linearGradient><linearGradient id="paint16_linear" x1="209.22" y1="500.784" x2="206.151" y2="487.895" gradientUnits="userSpaceOnUse"><stop stop-color="#FAD0BA"/><stop offset="1" stop-color="#F2A384"/></linearGradient><linearGradient id="paint17_linear" x1="198.326" y1="492.768" x2="230.927" y2="492.768" gradientUnits="userSpaceOnUse"><stop stop-color="#2865C6"/><stop offset="1" stop-color="#10378A"/></linearGradient><linearGradient id="paint18_linear" x1="179.434" y1="379.031" x2="203.307" y2="496.92" gradientUnits="userSpaceOnUse"><stop stop-color="#1542AB"/><stop offset="1" stop-color="#2B68EE"/></linearGradient><linearGradient id="paint19_linear" x1="165.274" y1="506.824" x2="162.205" y2="493.935" gradientUnits="userSpaceOnUse"><stop stop-color="#FAD0BA"/><stop offset="1" stop-color="#F2A384"/></linearGradient><linearGradient id="paint20_linear" x1="154.38" y1="498.808" x2="186.98" y2="498.808" gradientUnits="userSpaceOnUse"><stop stop-color="#2865C6"/><stop offset="1" stop-color="#10378A"/></linearGradient><linearGradient id="paint21_linear" x1="189.813" y1="462.539" x2="241.28" y2="381.585" gradientUnits="userSpaceOnUse"><stop stop-color="#3485F7"/><stop offset="1" stop-color="#1542AB"/></linearGradient><linearGradient id="paint22_linear" x1="121.685" y1="290.809" x2="145.416" y2="215.832" gradientUnits="userSpaceOnUse"><stop stop-color="#092871"/><stop offset="1" stop-color="#1C4CB9"/></linearGradient><linearGradient id="paint23_linear" x1="153.153" y1="192.576" x2="153.153" y2="201.281" gradientUnits="userSpaceOnUse"><stop stop-color="#FFE579"/><stop offset="1" stop-color="#FEB755"/></linearGradient><linearGradient id="paint24_linear" x1="140.524" y1="241.052" x2="163.117" y2="172.036" gradientUnits="userSpaceOnUse"><stop stop-color="#092871"/><stop offset="1" stop-color="#1C4CB9"/></linearGradient><linearGradient id="paint25_linear" x1="169.685" y1="245.027" x2="164.56" y2="232.696" gradientUnits="userSpaceOnUse"><stop stop-color="#F5B79C"/><stop offset="1" stop-color="#EC906C"/></linearGradient><linearGradient id="paint26_linear" x1="185.309" y1="259.814" x2="144.721" y2="231.334" gradientUnits="userSpaceOnUse"><stop stop-color="#FAD0BA"/><stop offset="1" stop-color="#F2A384"/></linearGradient><linearGradient id="paint27_linear" x1="191.418" y1="226.983" x2="180.936" y2="223.392" gradientUnits="userSpaceOnUse"><stop stop-color="#F5B79C"/><stop offset="1" stop-color="#EC906C"/></linearGradient><linearGradient id="paint28_linear" x1="181.221" y1="218.326" x2="181.221" y2="275.389" gradientUnits="userSpaceOnUse"><stop stop-color="#FFE579"/><stop offset="1" stop-color="#FEB755"/></linearGradient><linearGradient id="paint29_linear" x1="165.581" y1="219.389" x2="164.3" y2="276.936" gradientUnits="userSpaceOnUse"><stop stop-color="#FFE579"/><stop offset="1" stop-color="#F79B1D"/></linearGradient><linearGradient id="paint30_linear" x1="132.055" y1="226.907" x2="132.055" y2="333.661" gradientUnits="userSpaceOnUse"><stop stop-color="#FFE579"/><stop offset="1" stop-color="#FEB755"/></linearGradient><linearGradient id="paint31_linear" x1="98.78" y1="249.25" x2="183.565" y2="299.866" gradientUnits="userSpaceOnUse"><stop stop-color="#FFE579"/><stop offset="1" stop-color="#F3B14F"/></linearGradient><linearGradient id="paint32_linear" x1="113.467" y1="232.251" x2="107.536" y2="344.905" gradientUnits="userSpaceOnUse"><stop stop-color="#FFE579"/><stop offset="1" stop-color="#F79B1D"/></linearGradient><linearGradient id="paint33_linear" x1="129.202" y1="229.997" x2="129.202" y2="340.543" gradientUnits="userSpaceOnUse"><stop stop-color="#FFE579"/><stop offset="1" stop-color="#FEB755"/></linearGradient><linearGradient id="paint34_linear" x1="341.932" y1="122.801" x2="178.926" y2="407.673" gradientUnits="userSpaceOnUse"><stop stop-color="#E5EDFF"/><stop offset="1" stop-color="#6B9AD9"/></linearGradient><linearGradient id="paint35_linear" x1="336.998" y1="197.97" x2="304.183" y2="358.9" gradientUnits="userSpaceOnUse"><stop stop-color="#E5EDFF"/><stop offset="1" stop-color="#6B9AD9"/></linearGradient><linearGradient id="paint36_linear" x1="275.366" y1="105.697" x2="202.809" y2="655.48" gradientUnits="userSpaceOnUse"><stop stop-color="#F7FAFF"/><stop offset="1" stop-color="#6B9AD9"/></linearGradient><linearGradient id="paint37_linear" x1="529.877" y1="165.863" x2="454.981" y2="481.481" gradientUnits="userSpaceOnUse"><stop stop-color="#E5EDFF"/><stop offset="1" stop-color="#6B9AD9"/></linearGradient><linearGradient id="paint38_linear" x1="265.447" y1="194.001" x2="253.816" y2="428.088" gradientUnits="userSpaceOnUse"><stop stop-color="#F7FAFF"/><stop offset="1" stop-color="#6B9AD9"/></linearGradient><linearGradient id="paint39_linear" x1="603.858" y1="157.168" x2="603.858" y2="213.315" gradientUnits="userSpaceOnUse"><stop stop-color="#D8A590"/><stop offset="1" stop-color="#B06C57"/></linearGradient><linearGradient id="paint40_linear" x1="664.885" y1="182.861" x2="657.878" y2="159.885" gradientUnits="userSpaceOnUse"><stop stop-color="#032258"/><stop offset="1" stop-color="#133E94"/></linearGradient><linearGradient id="paint41_linear" x1="628.999" y1="182.591" x2="627.018" y2="175.379" gradientUnits="userSpaceOnUse"><stop stop-color="#032258"/><stop offset="1" stop-color="#133E94"/></linearGradient><linearGradient id="paint42_linear" x1="680.27" y1="184.098" x2="638.66" y2="100.336" gradientUnits="userSpaceOnUse"><stop stop-color="#032258"/><stop offset="1" stop-color="#133E94"/></linearGradient><linearGradient id="paint43_linear" x1="685.649" y1="486.266" x2="682.63" y2="469.471" gradientUnits="userSpaceOnUse"><stop stop-color="#FAD0BA"/><stop offset="1" stop-color="#F2A384"/></linearGradient><linearGradient id="paint44_linear" x1="713.178" y1="461.728" x2="674.347" y2="479.859" gradientUnits="userSpaceOnUse"><stop stop-color="#2865C6"/><stop offset="1" stop-color="#10378A"/></linearGradient><linearGradient id="paint45_linear" x1="609.939" y1="345.464" x2="629.798" y2="487.162" gradientUnits="userSpaceOnUse"><stop stop-color="#1542AB"/><stop offset="1" stop-color="#2B68EE"/></linearGradient><linearGradient id="paint46_linear" x1="585.488" y1="500.267" x2="592.367" y2="484.647" gradientUnits="userSpaceOnUse"><stop stop-color="#FAD0BA"/><stop offset="1" stop-color="#F2A384"/></linearGradient><linearGradient id="paint47_linear" x1="621.616" y1="495.229" x2="579.715" y2="488.584" gradientUnits="userSpaceOnUse"><stop stop-color="#2865C6"/><stop offset="1" stop-color="#10378A"/></linearGradient><linearGradient id="paint48_linear" x1="600.587" y1="261.555" x2="550.4" y2="343.584" gradientUnits="userSpaceOnUse"><stop stop-color="#3485F7"/><stop offset="1" stop-color="#1A57CF"/></linearGradient><linearGradient id="paint49_linear" x1="588.084" y1="264.246" x2="625.612" y2="360.814" gradientUnits="userSpaceOnUse"><stop stop-color="#84F0A8"/><stop offset="1" stop-color="#48B676"/></linearGradient><linearGradient id="paint50_linear" x1="530.462" y1="211.295" x2="530.462" y2="327.278" gradientUnits="userSpaceOnUse"><stop stop-color="#fff"/><stop offset="1" stop-color="#B3CDEF"/></linearGradient><linearGradient id="paint51_linear" x1="630.855" y1="265.873" x2="630.524" y2="278.835" gradientUnits="userSpaceOnUse"><stop stop-color="#E5EDFF"/><stop offset="1" stop-color="#6B9AD9"/></linearGradient><linearGradient id="paint52_linear" x1="575.506" y1="262.061" x2="604.47" y2="322.548" gradientUnits="userSpaceOnUse"><stop stop-color="#84F0A8"/><stop offset="1" stop-color="#48B676"/></linearGradient><linearGradient id="paint53_linear" x1="665.727" y1="332.505" x2="587.483" y2="512.473" gradientUnits="userSpaceOnUse"><stop stop-color="#EEF3FF"/><stop offset="1" stop-color="#6B9AD9"/></linearGradient><linearGradient id="paint54_linear" x1="280.697" y1="65.496" x2="265.382" y2="199.894" gradientUnits="userSpaceOnUse"><stop stop-color="#EEF3FF"/><stop offset="1" stop-color="#6B9AD9"/></linearGradient><linearGradient id="paint55_linear" x1="327.447" y1="77.293" x2="328.179" y2="149.781" gradientUnits="userSpaceOnUse"><stop stop-color="#E5EDFF"/><stop offset="1" stop-color="#6B9AD9"/></linearGradient><linearGradient id="paint56_linear" x1="400.029" y1="38.719" x2="379.452" y2="222.33" gradientUnits="userSpaceOnUse"><stop stop-color="#F7FAFF"/><stop offset="1" stop-color="#6B9AD9"/></linearGradient><linearGradient id="paint57_linear" x1="388.458" y1="68.339" x2="313.628" y2="280.691" gradientUnits="userSpaceOnUse"><stop stop-color="#F7FAFF"/><stop offset="1" stop-color="#6B9AD9"/></linearGradient></defs></svg>