<svg width="122" height="18" fill="none" xmlns="http://www.w3.org/2000/svg"><path d="M0 0v18h18V0H0zm16 3.275V8.4L8.475 16h-5.15L16 3.275zm-14 11.4v-5.2l7.5-7.55h5.175L2 14.675zM6.85 1.95L2 6.8V1.95h4.85zM11.15 16L16 11.15V16h-4.85z" fill="#50C27B"/><path d="M30.6 15.725c-.55 0-1.025-.075-1.45-.225-.425-.15-.75-.35-1.025-.6-.275-.25-.475-.575-.65-.95-.175-.375-.275-.775-.35-1.2-.075-.425-.1-.9-.1-1.4V6.675c0-.55.025-1.05.1-1.5.075-.425.175-.85.35-1.225.175-.375.375-.675.65-.925s.6-.425 1.025-.575c.4-.15.9-.2 1.425-.2 1.2 0 2.05.325 2.55.975.525.65.775 1.575.775 2.825V7.1h-1.75V5.7c0-.125 0-.25-.025-.425 0-.175-.025-.3-.05-.4-.025-.1-.05-.2-.075-.325a.834.834 0 0 0-.125-.3 1.617 1.617 0 0 0-.2-.225.647.647 0 0 0-.275-.175c-.1-.025-.225-.075-.35-.1-.125-.025-.3-.05-.45-.05-.25 0-.475.025-.675.075-.2.05-.35.15-.475.275-.125.125-.225.25-.3.4-.075.15-.125.325-.175.55-.025.225-.075.45-.075.65-.025.2-.025.475-.025.775v5.225c0 1 .125 1.675.375 2.075.25.4.7.575 1.325.575.25 0 .45-.025.625-.075.175-.05.325-.15.45-.275.125-.125.2-.25.275-.375.075-.125.125-.3.15-.55.025-.225.05-.425.05-.625v-1.725h1.75v.975c0 .5-.025.95-.1 1.35-.075.4-.175.775-.325 1.125-.15.35-.35.625-.6.875s-.575.4-.95.525c-.35.125-.8.2-1.3.2zm4.625-.025v-1.425c.75.075 1.275.05 1.6-.075.325-.125.5-.35.55-.675.025-.325 0-.775-.1-1.3l-2.625-9.85h1.75l1.775 7.7 1.575-7.7h1.775s-2.725 11.75-2.8 12c-.075.275-.25.525-.5.8s-.625.45-1.075.5c-.475.05-1.125.075-1.925.025zm12.4-.125V9.5c-.725.15-1.375.25-1.95.25-2.1 0-3.15-1.025-3.15-3.075v-4.3H44.2V6.65c0 .65.15 1.125.425 1.425.275.3.75.45 1.425.45.425 0 .975-.075 1.575-.2v-5.95h1.85v13.2h-1.85zm3.025 0l2.825-13.2h1.775l2.825 13.2h-1.75l-.6-3.325H53.05l-.625 3.325H50.65zm2.625-4.625h2.2l-1.1-5.975-1.1 5.975zm9.075 4.775c-.55 0-1.025-.075-1.45-.225-.425-.15-.75-.35-1.025-.6-.275-.25-.475-.575-.65-.95-.175-.375-.275-.775-.35-1.2-.075-.425-.1-.9-.1-1.4V6.675c0-.55.025-1.05.1-1.5.075-.425.175-.85.35-1.225.175-.375.375-.675.65-.925s.6-.425 1.025-.575c.4-.15.9-.2 1.425-.2 1.2 0 2.05.325 2.55.975.525.65.775 1.575.775 2.825V7.1H63.9V5.7c0-.125 0-.25-.025-.425 0-.175-.025-.3-.05-.4-.025-.1-.05-.2-.075-.325a.834.834 0 0 0-.125-.3 1.617 1.617 0 0 0-.2-.225.647.647 0 0 0-.275-.175c-.1-.025-.225-.075-.35-.1-.125-.025-.3-.05-.45-.05-.25 0-.475.025-.675.075-.2.05-.35.15-.475.275-.125.125-.225.25-.3.4-.075.15-.125.325-.175.55-.025.225-.075.45-.075.65-.025.2-.025.475-.025.775v5.225c0 1 .125 1.675.375 2.075.25.4.7.575 1.325.575.25 0 .45-.025.625-.075.175-.05.325-.15.45-.275.125-.125.2-.25.275-.375.075-.125.125-.3.15-.55.025-.225.05-.425.05-.625v-1.725h1.75v.975c0 .5-.025.95-.1 1.35-.075.4-.175.775-.325 1.125-.15.35-.35.625-.6.875s-.575.4-.95.525c-.35.125-.8.2-1.3.2zm4.725-.15v-13.2h1.85v5.7h3.4v-5.7h1.85v13.2h-1.85V9.4h-3.4v6.175h-1.85zm8.725 0v-13.2h5.1V3.75h-3.274v4.375h2.65V9.45h-2.65v4.8h3.3v1.325H75.8zm10.325 0l.25-13.2h1.65L90.5 12.55 93 2.375h1.65l.25 13.2h-1.45l-.1-8.9-2.325 8.9H90L87.7 6.7l-.1 8.875h-1.475zm10.4 0v-13.2h1.8v13.2h-1.8zm6.901.15c-.55 0-1.025-.075-1.45-.225-.425-.15-.75-.35-1.025-.6-.275-.25-.475-.575-.65-.95-.175-.375-.275-.775-.35-1.2-.075-.425-.1-.9-.1-1.4V6.675c0-.55.025-1.05.1-1.5.075-.425.175-.85.35-1.225.175-.375.375-.675.65-.925s.6-.425 1.025-.575c.4-.15.9-.2 1.425-.2 1.2 0 2.05.325 2.55.975.525.65.775 1.575.775 2.825V7.1h-1.75V5.7c0-.125 0-.25-.025-.425 0-.175-.025-.3-.05-.4-.025-.1-.05-.2-.075-.325a.834.834 0 0 0-.125-.3 1.617 1.617 0 0 0-.2-.225.647.647 0 0 0-.275-.175c-.1-.025-.225-.075-.35-.1-.125-.025-.3-.05-.45-.05-.25 0-.475.025-.675.075-.2.05-.35.15-.475.275-.125.125-.225.25-.3.4-.075.15-.125.325-.175.55-.025.225-.075.45-.075.65-.025.2-.025.475-.025.775v5.225c0 1 .125 1.675.375 2.075.25.4.7.575 1.325.575.25 0 .45-.025.625-.075.175-.05.325-.15.45-.275.125-.125.2-.25.275-.375.075-.125.125-.3.15-.55.025-.225.05-.425.05-.625v-1.725h1.75v.975c0 .5-.025.95-.1 1.35-.075.4-.175.775-.325 1.125-.15.35-.35.625-.6.875s-.575.4-.95.525c-.35.125-.8.2-1.3.2zm6.45-.15V3.75h-2.4V2.375h6.575V3.75h-2.325V15.6h-1.85v-.025zm8.449.15c-.65 0-1.225-.1-1.7-.3-.475-.2-.85-.475-1.125-.875a3.706 3.706 0 0 1-.6-1.35c-.125-.5-.2-1.1-.2-1.775v-5c0-1.375.275-2.425.85-3.125.55-.7 1.475-1.075 2.775-1.075 1.275 0 2.2.35 2.75 1.075.575.725.85 1.75.85 3.125v5c0 1.375-.275 2.425-.85 3.175-.55.75-1.475 1.125-2.75 1.125zm-.875-1.6c.225.1.525.175.9.175.35 0 .65-.05.9-.175.225-.1.425-.275.525-.5.125-.225.2-.475.25-.75.05-.275.075-.6.075-1.025v-5.8c0-.4-.025-.725-.075-1-.05-.275-.125-.5-.25-.725a1.266 1.266 0 0 0-.525-.5c-.225-.1-.525-.15-.9-.15-.35 0-.65.05-.9.15-.225.1-.425.275-.525.5-.125.225-.2.475-.25.725-.05.275-.075.6-.075 1v5.775c0 .4.025.75.075 1.025.05.275.125.525.25.75.1.225.275.4.525.525z" fill="#fff"/></svg>